<mxfile host="65bd71144e">
    <diagram id="Mswnlu7c8zMctunyO1Xx" name="Pagina-1">
        <mxGraphModel dx="1521" dy="1596" grid="1" gridSize="10" guides="1" tooltips="1" connect="1" arrows="1" fold="1" page="1" pageScale="1" pageWidth="827" pageHeight="1169" math="0" shadow="0">
            <root>
                <mxCell id="0"/>
                <mxCell id="1" parent="0"/>
                <mxCell id="31" value="" style="childLayout=tableLayout;recursiveResize=0;shadow=0;strokeColor=#E6E6E6;align=center;movable=1;resizable=1;rotatable=1;deletable=1;editable=1;connectable=1;" parent="1" vertex="1">
                    <mxGeometry x="-567" y="-79" width="841" height="349" as="geometry"/>
                </mxCell>
                <mxCell id="32" value="" style="shape=tableRow;horizontal=0;startSize=0;swimlaneHead=0;swimlaneBody=0;top=0;left=0;bottom=0;right=0;dropTarget=0;collapsible=0;recursiveResize=0;expand=0;fontStyle=0;fillColor=none;strokeColor=inherit;" parent="31" vertex="1">
                    <mxGeometry width="841" height="44" as="geometry"/>
                </mxCell>
                <mxCell id="33" value="&lt;span style=&quot;white-space: pre;&quot;&gt;&#9;&lt;/span&gt;STEP" style="connectable=0;recursiveResize=0;strokeColor=inherit;fillColor=none;align=left;whiteSpace=wrap;html=1;fontStyle=1" parent="32" vertex="1">
                    <mxGeometry width="480" height="44" as="geometry">
                        <mxRectangle width="480" height="44" as="alternateBounds"/>
                    </mxGeometry>
                </mxCell>
                <mxCell id="34" value="&lt;span style=&quot;white-space: pre;&quot;&gt;&#9;&lt;/span&gt;COST CALCULATION" style="connectable=0;recursiveResize=0;strokeColor=inherit;fillColor=none;align=left;whiteSpace=wrap;html=1;fontStyle=1" parent="32" vertex="1">
                    <mxGeometry x="480" width="200" height="44" as="geometry">
                        <mxRectangle width="200" height="44" as="alternateBounds"/>
                    </mxGeometry>
                </mxCell>
                <mxCell id="35" value="&lt;span style=&quot;white-space: pre;&quot;&gt;&#9;&lt;/span&gt;STEP COST" style="connectable=0;recursiveResize=0;strokeColor=inherit;fillColor=none;align=left;whiteSpace=wrap;html=1;fontStyle=1" parent="32" vertex="1">
                    <mxGeometry x="680" width="161" height="44" as="geometry">
                        <mxRectangle width="161" height="44" as="alternateBounds"/>
                    </mxGeometry>
                </mxCell>
                <mxCell id="36" style="shape=tableRow;horizontal=0;startSize=0;swimlaneHead=0;swimlaneBody=0;top=0;left=0;bottom=0;right=0;dropTarget=0;collapsible=0;recursiveResize=0;expand=0;fontStyle=0;fillColor=none;strokeColor=inherit;align=left;" parent="31" vertex="1">
                    <mxGeometry y="44" width="841" height="41" as="geometry"/>
                </mxCell>
                <mxCell id="37" value="&lt;span style=&quot;white-space: pre;&quot;&gt;&#9;&lt;/span&gt;1 USER opens label records window" style="connectable=0;recursiveResize=0;strokeColor=inherit;fillColor=none;align=left;whiteSpace=wrap;html=1;" parent="36" vertex="1">
                    <mxGeometry width="480" height="41" as="geometry">
                        <mxRectangle width="480" height="41" as="alternateBounds"/>
                    </mxGeometry>
                </mxCell>
                <mxCell id="38" value="1 x 1 x 1.3" style="connectable=0;recursiveResize=0;strokeColor=inherit;fillColor=none;align=center;whiteSpace=wrap;html=1;" parent="36" vertex="1">
                    <mxGeometry x="480" width="200" height="41" as="geometry">
                        <mxRectangle width="200" height="41" as="alternateBounds"/>
                    </mxGeometry>
                </mxCell>
                <mxCell id="39" value="1.3" style="connectable=0;recursiveResize=0;strokeColor=inherit;fillColor=none;align=center;whiteSpace=wrap;html=1;" parent="36" vertex="1">
                    <mxGeometry x="680" width="161" height="41" as="geometry">
                        <mxRectangle width="161" height="41" as="alternateBounds"/>
                    </mxGeometry>
                </mxCell>
                <mxCell id="40" style="shape=tableRow;horizontal=0;startSize=0;swimlaneHead=0;swimlaneBody=0;top=0;left=0;bottom=0;right=0;dropTarget=0;collapsible=0;recursiveResize=0;expand=0;fontStyle=0;fillColor=none;strokeColor=inherit;" parent="31" vertex="1">
                    <mxGeometry y="85" width="841" height="44" as="geometry"/>
                </mxCell>
                <mxCell id="41" value="&lt;span style=&quot;white-space: pre;&quot;&gt;&#9;&lt;/span&gt;2 SYSTEM shows vehicles' photos and buttons to label the extent of damage" style="connectable=0;recursiveResize=0;strokeColor=inherit;fillColor=none;align=left;whiteSpace=wrap;html=1;" parent="40" vertex="1">
                    <mxGeometry width="480" height="44" as="geometry">
                        <mxRectangle width="480" height="44" as="alternateBounds"/>
                    </mxGeometry>
                </mxCell>
                <mxCell id="42" value="" style="connectable=0;recursiveResize=0;strokeColor=inherit;fillColor=none;align=left;whiteSpace=wrap;html=1;" parent="40" vertex="1">
                    <mxGeometry x="480" width="200" height="44" as="geometry">
                        <mxRectangle width="200" height="44" as="alternateBounds"/>
                    </mxGeometry>
                </mxCell>
                <mxCell id="43" value="" style="connectable=0;recursiveResize=0;strokeColor=inherit;fillColor=none;align=left;whiteSpace=wrap;html=1;" parent="40" vertex="1">
                    <mxGeometry x="680" width="161" height="44" as="geometry">
                        <mxRectangle width="161" height="44" as="alternateBounds"/>
                    </mxGeometry>
                </mxCell>
                <mxCell id="44" style="shape=tableRow;horizontal=0;startSize=0;swimlaneHead=0;swimlaneBody=0;top=0;left=0;bottom=0;right=0;dropTarget=0;collapsible=0;recursiveResize=0;expand=0;fontStyle=0;fillColor=none;strokeColor=inherit;" parent="31" vertex="1">
                    <mxGeometry y="129" width="841" height="44" as="geometry"/>
                </mxCell>
                <mxCell id="45" value="&lt;span style=&quot;white-space: pre;&quot;&gt;&#9;&lt;/span&gt;3.1 FOR EACH photo" style="connectable=0;recursiveResize=0;strokeColor=inherit;fillColor=none;align=left;whiteSpace=wrap;html=1;" parent="44" vertex="1">
                    <mxGeometry width="480" height="44" as="geometry">
                        <mxRectangle width="480" height="44" as="alternateBounds"/>
                    </mxGeometry>
                </mxCell>
                <mxCell id="46" value="10" style="connectable=0;recursiveResize=0;strokeColor=inherit;fillColor=none;align=center;whiteSpace=wrap;html=1;" parent="44" vertex="1">
                    <mxGeometry x="480" width="200" height="44" as="geometry">
                        <mxRectangle width="200" height="44" as="alternateBounds"/>
                    </mxGeometry>
                </mxCell>
                <mxCell id="47" value="" style="connectable=0;recursiveResize=0;strokeColor=inherit;fillColor=none;align=center;whiteSpace=wrap;html=1;" parent="44" vertex="1">
                    <mxGeometry x="680" width="161" height="44" as="geometry">
                        <mxRectangle width="161" height="44" as="alternateBounds"/>
                    </mxGeometry>
                </mxCell>
                <mxCell id="60" style="shape=tableRow;horizontal=0;startSize=0;swimlaneHead=0;swimlaneBody=0;top=0;left=0;bottom=0;right=0;dropTarget=0;collapsible=0;recursiveResize=0;expand=0;fontStyle=0;fillColor=none;strokeColor=inherit;" parent="31" vertex="1">
                    <mxGeometry y="173" width="841" height="44" as="geometry"/>
                </mxCell>
                <mxCell id="61" value="&lt;span style=&quot;&quot;&gt;&#9;&lt;/span&gt;&lt;span style=&quot;white-space: pre;&quot;&gt;&#9;&lt;/span&gt;3.1.1 USER compares begging and end photos" style="connectable=0;recursiveResize=0;strokeColor=inherit;fillColor=none;align=left;whiteSpace=wrap;html=1;" parent="60" vertex="1">
                    <mxGeometry width="480" height="44" as="geometry">
                        <mxRectangle width="480" height="44" as="alternateBounds"/>
                    </mxGeometry>
                </mxCell>
                <mxCell id="62" value="10 x 3 x 1.3" style="connectable=0;recursiveResize=0;strokeColor=inherit;fillColor=none;align=center;whiteSpace=wrap;html=1;" parent="60" vertex="1">
                    <mxGeometry x="480" width="200" height="44" as="geometry">
                        <mxRectangle width="200" height="44" as="alternateBounds"/>
                    </mxGeometry>
                </mxCell>
                <mxCell id="63" value="39" style="connectable=0;recursiveResize=0;strokeColor=inherit;fillColor=none;align=center;whiteSpace=wrap;html=1;" parent="60" vertex="1">
                    <mxGeometry x="680" width="161" height="44" as="geometry">
                        <mxRectangle width="161" height="44" as="alternateBounds"/>
                    </mxGeometry>
                </mxCell>
                <mxCell id="48" style="shape=tableRow;horizontal=0;startSize=0;swimlaneHead=0;swimlaneBody=0;top=0;left=0;bottom=0;right=0;dropTarget=0;collapsible=0;recursiveResize=0;expand=0;fontStyle=0;fillColor=none;strokeColor=inherit;" parent="31" vertex="1">
                    <mxGeometry y="217" width="841" height="44" as="geometry"/>
                </mxCell>
                <mxCell id="49" value="&lt;span style=&quot;&quot;&gt;&lt;span style=&quot;&quot;&gt;&lt;span style=&quot;white-space: pre;&quot;&gt;&#9;&lt;/span&gt;4&lt;/span&gt;&lt;/span&gt;&amp;nbsp;USER clicks on one of the extent damage buttons" style="connectable=0;recursiveResize=0;strokeColor=inherit;fillColor=none;align=left;whiteSpace=wrap;html=1;" parent="48" vertex="1">
                    <mxGeometry width="480" height="44" as="geometry">
                        <mxRectangle width="480" height="44" as="alternateBounds"/>
                    </mxGeometry>
                </mxCell>
                <mxCell id="50" value="1 x 1 x 1.3" style="connectable=0;recursiveResize=0;strokeColor=inherit;fillColor=none;align=center;whiteSpace=wrap;html=1;" parent="48" vertex="1">
                    <mxGeometry x="480" width="200" height="44" as="geometry">
                        <mxRectangle width="200" height="44" as="alternateBounds"/>
                    </mxGeometry>
                </mxCell>
                <mxCell id="51" value="1.3" style="connectable=0;recursiveResize=0;strokeColor=inherit;fillColor=none;align=center;whiteSpace=wrap;html=1;" parent="48" vertex="1">
                    <mxGeometry x="680" width="161" height="44" as="geometry">
                        <mxRectangle width="161" height="44" as="alternateBounds"/>
                    </mxGeometry>
                </mxCell>
                <mxCell id="52" style="shape=tableRow;horizontal=0;startSize=0;swimlaneHead=0;swimlaneBody=0;top=0;left=0;bottom=0;right=0;dropTarget=0;collapsible=0;recursiveResize=0;expand=0;fontStyle=0;fillColor=none;strokeColor=inherit;" parent="31" vertex="1">
                    <mxGeometry y="261" width="841" height="44" as="geometry"/>
                </mxCell>
                <mxCell id="53" value="&lt;span style=&quot;white-space: pre;&quot;&gt;&#9;&lt;/span&gt;5 USER closes label records window" style="connectable=0;recursiveResize=0;strokeColor=inherit;fillColor=none;align=left;whiteSpace=wrap;html=1;" parent="52" vertex="1">
                    <mxGeometry width="480" height="44" as="geometry">
                        <mxRectangle width="480" height="44" as="alternateBounds"/>
                    </mxGeometry>
                </mxCell>
                <mxCell id="54" value="1 x 1 x 1.3" style="connectable=0;recursiveResize=0;strokeColor=inherit;fillColor=none;align=center;whiteSpace=wrap;html=1;" parent="52" vertex="1">
                    <mxGeometry x="480" width="200" height="44" as="geometry">
                        <mxRectangle width="200" height="44" as="alternateBounds"/>
                    </mxGeometry>
                </mxCell>
                <mxCell id="55" value="1.3" style="connectable=0;recursiveResize=0;strokeColor=inherit;fillColor=none;align=center;whiteSpace=wrap;html=1;" parent="52" vertex="1">
                    <mxGeometry x="680" width="161" height="44" as="geometry">
                        <mxRectangle width="161" height="44" as="alternateBounds"/>
                    </mxGeometry>
                </mxCell>
                <mxCell id="56" style="shape=tableRow;horizontal=0;startSize=0;swimlaneHead=0;swimlaneBody=0;top=0;left=0;bottom=0;right=0;dropTarget=0;collapsible=0;recursiveResize=0;expand=0;fontStyle=0;fillColor=none;strokeColor=inherit;" parent="31" vertex="1">
                    <mxGeometry y="305" width="841" height="44" as="geometry"/>
                </mxCell>
                <mxCell id="57" value="" style="connectable=0;recursiveResize=0;strokeColor=inherit;fillColor=none;align=left;whiteSpace=wrap;html=1;" parent="56" vertex="1">
                    <mxGeometry width="480" height="44" as="geometry">
                        <mxRectangle width="480" height="44" as="alternateBounds"/>
                    </mxGeometry>
                </mxCell>
                <mxCell id="58" value="&#9;&lt;span style=&quot;font-weight: 700;&quot;&gt;&lt;span style=&quot;white-space: pre;&quot;&gt;&#9;&lt;/span&gt;HUMAN TASK COST&lt;/span&gt;" style="connectable=0;recursiveResize=0;strokeColor=inherit;fillColor=none;align=left;whiteSpace=wrap;html=1;" parent="56" vertex="1">
                    <mxGeometry x="480" width="200" height="44" as="geometry">
                        <mxRectangle width="200" height="44" as="alternateBounds"/>
                    </mxGeometry>
                </mxCell>
                <mxCell id="59" value="&lt;b&gt;42.9&lt;/b&gt;" style="connectable=0;recursiveResize=0;strokeColor=inherit;fillColor=none;align=center;whiteSpace=wrap;html=1;" parent="56" vertex="1">
                    <mxGeometry x="680" width="161" height="44" as="geometry">
                        <mxRectangle width="161" height="44" as="alternateBounds"/>
                    </mxGeometry>
                </mxCell>
            </root>
        </mxGraphModel>
    </diagram>
</mxfile>